PathFileType	4	(X/Y/Z)	C:\Users\WrightLab\Desktop\Jo\P4V123.trc
DataRate	CameraRate	NumFrames	NumMarkers	Units	OrigDataRate	OrigDataStartFrame	OrigNumFrames
100.00	100.00	       11	19	mm	100.00	1	       504
Frame#	Time	Headset_Front			Headset_Back			Headset_Left			Headset_Right			Left_Shoulder			Right_Shoulder			Sternum			C7			Left Elbow			Right Elbow			Left Wrist			Right Wrist			Left ASIS			Right ASIS			S2			Left Knee			Right Knee			Left Ankle			Right Ankle			
		X1	Y1	Z1	X2	Y2	Z2	X3	Y3	Z3	X4	Y4	Z4	X5	Y5	Z5	X6	Y6	Z6	X7	Y7	Z7	X8	Y8	Z8	X9	Y9	Z9	X10	Y10	Z10	X11	Y11	Z11	X12	Y12	Z12	X13	Y13	Z13	X14	Y14	Z14	X15	Y15	Z15	X16	Y16	Z16	X17	Y17	Z17	X18	Y18	Z18	X19	Y19	Z19	

1	0.000				-257.39188	1091.58484	2349.94092										-65.79766	1558.35730	2290.55713	-193.47339	1836.54236	2213.87793	-220.08488	1599.99841	2276.31714				63.77186	1209.31616	2348.58765	-426.47473	1338.72339	1618.49243	131.31395	934.71948	2226.29688	-340.82391	1040.46655	2132.56104							-374.68710	572.30896	2262.56055	57.68159	615.20233	2196.57104	-425.92072	122.71198	2508.88770	34.30606	107.43982	2225.77881	
2	0.010				-251.41129	1090.70313	2344.77466										-60.73785	1557.45728	2286.41113	-188.39000	1835.73547	2208.73291	-215.11311	1599.06799	2270.63672				68.92737	1208.43042	2345.37378	-424.14413	1341.83936	1614.72168	137.49512	934.40277	2223.74316	-333.64691	1039.32495	2127.94727							-369.01752	571.21460	2256.38940	63.77539	614.08563	2193.27197	-425.00888	125.71471	2507.96167	35.52359	106.84118	2224.77661	
3	0.020	-329.95575	1556.40430	2164.01221	-244.53192	1090.21899	2339.40967										-55.28474	1556.96631	2281.45557	-182.43318	1834.71277	2202.46509	-209.53931	1598.69116	2265.65479				74.69453	1208.12988	2342.25098	-420.16467	1349.36816	1601.08997	143.74899	933.60236	2223.44678	-326.19864	1038.28931	2121.26074							-364.09854	571.88611	2250.59375	68.61607	613.28033	2189.29517	-423.92957	128.88156	2506.60938	36.72134	106.42471	2223.58911	
4	0.030	-323.71573	1556.20239	2158.71997	-238.16232	1090.01160	2334.42236							-298.97226	1730.21655	2118.27759	-50.09575	1556.96277	2277.20337	-176.85359	1834.75867	2195.95337	-204.20706	1598.61853	2260.22974				79.78606	1208.11279	2338.49536	-416.55841	1354.40881	1594.08740	149.74686	933.53656	2220.59033	-318.71869	1037.94336	2115.44604							-358.44531	571.22742	2243.69922	74.25497	612.54688	2186.28564	-422.32980	131.95703	2504.21289	37.26764	106.75365	2223.26587	
5	0.040	-317.24948	1556.13599	2151.97461	-232.17090	1089.92456	2328.43774							-293.42313	1730.25146	2112.56934	-44.48852	1556.65186	2272.62231	-171.07437	1834.52747	2189.74878	-198.82135	1598.60583	2254.65845				85.58414	1208.22046	2335.89990	-413.83823	1357.90076	1590.67310	156.19304	933.35938	2218.98096	-310.71603	1037.56091	2108.80493							-352.19098	570.72217	2235.90625	78.13441	613.22375	2181.70605	-421.34512	137.06654	2503.34009	38.19835	106.71603	2221.68726	
6	0.050	-311.02005	1556.42554	2146.66675	-225.16409	1089.71069	2323.27002							-288.02679	1729.80139	2107.53247	-39.22805	1556.74243	2268.48755	-165.27545	1834.76868	2183.69629	-193.09044	1599.20508	2250.14014				91.26955	1208.45630	2331.31128	-410.85938	1362.84729	1584.73181	162.16118	933.65356	2216.69263	-302.42972	1037.49524	2103.46851							-346.37405	571.24744	2226.15918	82.37380	611.90436	2176.12939	-419.79181	143.11990	2501.19214	38.56253	106.99174	2221.65039	
7	0.060	-304.36462	1556.48096	2141.43335	-218.86577	1090.23120	2317.20874							-282.50836	1729.36353	2102.32715	-33.55415	1557.32593	2264.17236	-159.45299	1834.81958	2177.32593	-187.49644	1599.15308	2243.98218				97.09321	1209.50366	2328.48926	-406.97440	1369.82556	1569.81812	168.24493	933.92706	2214.75049	-294.08609	1038.13562	2097.03809							-339.87872	570.67908	2216.32324	86.82833	612.38489	2173.58350	-417.62598	147.65427	2498.16797	39.35541	107.10840	2220.60107	
8	0.070	-298.24255	1556.96582	2135.46997	-212.17451	1091.11353	2311.47388							-276.84122	1729.70557	2096.80640	-28.10768	1558.09277	2259.93579	-153.72884	1835.36890	2171.19336	-181.62540	1600.20081	2239.62817				102.56737	1210.48108	2324.15601	-404.25168	1374.23218	1569.82410				-285.79819	1039.14368	2090.30957							-333.00739	571.08594	2206.46851	92.04646	610.60944	2169.43018	-415.16296	153.98209	2495.04468	40.13240	106.61107	2219.80591	
9	0.080	-291.93597	1557.94727	2131.25000	-205.73813	1091.10608	2304.74902							-271.46765	1730.39368	2091.77271	-22.48045	1559.78760	2255.50977	-147.62999	1835.72473	2164.33447	-175.92473	1600.67908	2233.49219				108.46481	1212.27087	2321.10815	-401.55481	1378.13367	1562.69800	180.36964	935.59412	2208.21436	-277.50638	1039.91760	2084.96899							-325.32623	570.48840	2195.29785	97.28812	610.66260	2169.40356	-412.37735	160.52940	2489.90381	40.12832	107.06348	2219.81250	
10	0.090	-232.61072	1528.00378	2037.44995	-199.94847	1091.74915	2300.33057							-265.51291	1730.68787	2085.94019	-16.81069	1561.25806	2250.99902	-141.98244	1836.92285	2158.05835							114.33825	1213.07800	2315.57813	-398.28326	1383.27478	1556.79175	186.26907	936.79004	2205.75415	-269.03488	1040.44080	2079.48145							-317.08249	570.49017	2181.49072	101.08549	609.71167	2166.62280	-409.50565	168.06377	2485.69849	40.16044	107.20410	2219.47705	
11	0.100	-278.67575	1559.36707	2119.24609										-259.93192	1731.38330	2080.60010	-11.07718	1562.96423	2246.68726				-163.97623	1603.22729	2222.88989				120.26673	1215.29712	2312.82178	-395.45956	1389.95593	1544.57751	192.55109	938.13757	2202.85742										-307.95837	569.59717	2165.20850	104.69589	608.87628	2163.89966	-405.37814	175.52510	2478.46460	40.14356	107.20828	2219.37085	
